<?xml version="1.0" encoding="utf-8"?>
<!-- Generator: Adobe Illustrator 16.0.0, SVG Export Plug-In . SVG Version: 6.00 Build 0)  -->
<!DOCTYPE svg PUBLIC "-//W3C//DTD SVG 1.0//EN" "http://www.w3.org/TR/2001/REC-SVG-20010904/DTD/svg10.dtd">
<svg version="1.0" id="Layer_1" xmlns="http://www.w3.org/2000/svg" xmlns:xlink="http://www.w3.org/1999/xlink" x="0px" y="0px"
	 width="512px" height="512px" viewBox="0 0 512 512" enable-background="new 0 0 512 512" xml:space="preserve">
<path fill="#6C6C6C" d="M512,256c0,141.38-114.62,256-256,256S0,397.38,0,256S114.62,0,256,0S512,114.62,512,256z"/>
<path fill="#FFFFFF" d="M466,304c0,115.976-94.024,210-210,210S46,419.976,46,304S140.024,94,256,94S466,188.024,466,304z"/>
<g>
	<path fill-rule="evenodd" clip-rule="evenodd" fill="#6C6C6C" d="M255.462,73.542c-121.466,0-219.962,98.476-219.962,219.96
		c0,97.185,63.026,179.634,150.422,208.722c10.993,2.034,15.034-4.774,15.034-10.586c0-5.242-0.207-22.571-0.298-40.951
		c-61.198,13.308-74.109-25.95-74.109-25.95c-10.001-25.423-24.424-32.187-24.424-32.187c-19.954-13.651,1.509-13.372,1.509-13.372
		c22.083,1.551,33.715,22.672,33.715,22.672c19.622,33.624,51.456,23.902,64.012,18.283c1.971-14.216,7.67-23.923,13.966-29.416
		c-48.86-5.558-100.219-24.421-100.219-108.705c0-24.014,8.594-43.635,22.666-59.039c-2.282-5.543-9.817-27.913,2.128-58.212
		c0,0,18.474-5.908,60.505,22.549c17.544-4.875,36.361-7.318,55.055-7.403c18.692,0.084,37.523,2.528,55.102,7.403
		c41.985-28.458,60.428-22.549,60.428-22.549c11.973,30.299,4.446,52.669,2.162,58.212c14.102,15.404,22.638,35.025,22.638,59.039
		c0,84.485-51.457,103.086-100.439,108.533c7.89,6.825,14.92,20.21,14.92,40.73c0,29.431-0.256,53.12-0.256,60.362
		c0,5.854,3.963,12.715,15.11,10.558c87.349-29.12,150.295-111.54,150.295-208.693C475.422,172.018,376.941,73.542,255.462,73.542z"
		/>
	<path fill="#6C6C6C" d="M118.816,389.355c-0.484,1.097-2.207,1.424-3.771,0.672c-1.602-0.719-2.49-2.207-1.977-3.304
		c0.476-1.125,2.197-1.437,3.791-0.688C118.452,386.755,119.363,388.26,118.816,389.355L118.816,389.355z M116.104,387.351
		L116.104,387.351z"/>
	<path fill="#6C6C6C" d="M127.721,399.293c-1.044,0.971-3.102,0.521-4.488-1.016c-1.444-1.533-1.708-3.586-0.646-4.572
		c1.08-0.97,3.072-0.515,4.509,1.02C128.54,396.273,128.819,398.309,127.721,399.293L127.721,399.293z M125.623,397.042
		L125.623,397.042z"/>
	<path fill="#6C6C6C" d="M136.395,411.96c-1.346,0.94-3.55,0.062-4.916-1.894c-1.345-1.958-1.345-4.305,0.035-5.244
		c1.359-0.939,3.535-0.092,4.916,1.848C137.774,408.657,137.774,411.005,136.395,411.96L136.395,411.96z M136.395,411.96
		L136.395,411.96z"/>
	<path fill="#6C6C6C" d="M148.274,424.202c-1.202,1.33-3.77,0.971-5.649-0.843c-1.929-1.772-2.46-4.292-1.251-5.623
		c1.223-1.327,3.806-0.955,5.698,0.844C148.979,420.354,149.562,422.886,148.274,424.202L148.274,424.202z M148.274,424.202
		L148.274,424.202z"/>
	<path fill="#6C6C6C" d="M164.667,431.31c-0.534,1.722-3.003,2.504-5.493,1.77c-2.489-0.754-4.119-2.77-3.613-4.51
		c0.512-1.735,3.001-2.552,5.506-1.769C163.556,427.553,165.185,429.554,164.667,431.31L164.667,431.31z M164.667,431.31
		L164.667,431.31z"/>
	<path fill="#6C6C6C" d="M182.672,432.625c0.056,1.814-2.055,3.318-4.668,3.35c-2.631,0.062-4.758-1.408-4.786-3.193
		c0-1.833,2.062-3.318,4.695-3.364C180.524,429.367,182.672,430.825,182.672,432.625L182.672,432.625z M182.672,432.625
		L182.672,432.625z"/>
	<path fill="#6C6C6C" d="M199.419,429.774c0.313,1.77-1.502,3.586-4.1,4.07c-2.552,0.47-4.914-0.627-5.242-2.38
		c-0.32-1.815,1.53-3.634,4.084-4.101C196.759,426.912,199.091,427.974,199.419,429.774L199.419,429.774z M199.419,429.774
		L199.419,429.774z"/>
</g>
</svg>
