<?xml version="1.0" encoding="utf-8"?>
<!-- Generator: Adobe Illustrator 16.0.0, SVG Export Plug-In . SVG Version: 6.00 Build 0)  -->
<!DOCTYPE svg PUBLIC "-//W3C//DTD SVG 1.0//EN" "http://www.w3.org/TR/2001/REC-SVG-20010904/DTD/svg10.dtd">
<svg version="1.0" id="Layer_1" xmlns="http://www.w3.org/2000/svg" xmlns:xlink="http://www.w3.org/1999/xlink" x="0px" y="0px"
	 width="512px" height="512px" viewBox="0 0 512 512" enable-background="new 0 0 512 512" xml:space="preserve">
<path fill="#6C6C6C" d="M512,256c0,141.38-114.62,256-256,256S0,397.38,0,256S114.62,0,256,0S512,114.62,512,256z"/>
<g>
	<path fill="#FFFFFF" d="M416.001,177.491c-10.966,4.862-22.748,8.15-35.116,9.627c12.624-7.566,22.316-19.548,26.882-33.825
		c-11.812,7.007-24.896,12.095-38.822,14.837c-11.153-11.883-27.043-19.308-44.627-19.308c-33.766,0-61.139,27.374-61.139,61.137
		c0,4.792,0.541,9.458,1.584,13.933c-50.813-2.55-95.862-26.89-126.016-63.879c-5.263,9.03-8.278,19.532-8.278,30.736
		c0,21.21,10.793,39.924,27.198,50.889c-10.022-0.317-19.45-3.067-27.692-7.648c-0.004,0.255-0.005,0.511-0.005,0.769
		c0,29.623,21.075,54.333,49.043,59.95c-5.131,1.396-10.532,2.144-16.107,2.144c-3.939,0-7.77-0.383-11.503-1.096
		c7.78,24.29,30.359,41.965,57.113,42.459c-20.924,16.397-47.286,26.171-75.93,26.171c-4.935,0-9.801-0.288-14.584-0.853
		C145.056,380.879,177.193,391,211.719,391c112.456,0,173.951-93.16,173.951-173.952c0-2.651-0.061-5.288-0.177-7.909
		C397.437,200.52,407.803,189.751,416.001,177.491L416.001,177.491z"/>
</g>
</svg>
