<?xml version="1.0" encoding="utf-8"?>
<!-- Generator: Adobe Illustrator 16.0.0, SVG Export Plug-In . SVG Version: 6.00 Build 0)  -->
<!DOCTYPE svg PUBLIC "-//W3C//DTD SVG 1.1//EN" "http://www.w3.org/Graphics/SVG/1.1/DTD/svg11.dtd">
<svg version="1.1" id="Layer_1" xmlns="http://www.w3.org/2000/svg" xmlns:xlink="http://www.w3.org/1999/xlink" x="0px" y="0px"
	 width="512px" height="512px" viewBox="0 0 512 512" enable-background="new 0 0 512 512" xml:space="preserve">
<path fill="#6C6C6C" d="M512,256c0,141.38-114.62,256-256,256S0,397.38,0,256S114.62,0,256,0S512,114.62,512,256z"/>
<g opacity="0.8">
	<path fill="#FFFFFF" d="M391.391,176.123c-10.06,4.461-20.869,7.477-32.216,8.832c11.581-6.941,20.474-17.934,24.662-31.031
		c-10.837,6.428-22.841,11.096-35.616,13.611c-10.232-10.901-24.81-17.713-40.941-17.713c-30.978,0-56.091,25.113-56.091,56.088
		c0,4.396,0.497,8.677,1.453,12.782c-46.616-2.339-87.945-24.669-115.609-58.604c-4.828,8.284-7.594,17.919-7.594,28.198
		c0,19.459,9.902,36.627,24.952,46.686c-9.194-0.291-17.843-2.814-25.405-7.016c-0.004,0.234-0.005,0.469-0.005,0.705
		c0,27.176,19.334,49.846,44.993,54.999c-4.707,1.282-9.662,1.967-14.777,1.967c-3.614,0-7.128-0.351-10.553-1.006
		c7.138,22.284,27.852,38.5,52.396,38.953c-19.196,15.043-43.381,24.01-69.659,24.01c-4.527,0-8.992-0.265-13.38-0.782
		C142.822,362.715,172.305,372,203.979,372c103.169,0,159.585-85.467,159.585-159.586c0-2.432-0.055-4.851-0.162-7.256
		C374.359,197.25,383.87,187.371,391.391,176.123L391.391,176.123z"/>
</g>
</svg>
